<?xml version="1.0" encoding="utf-8"?>
<!-- Generator: Adobe Illustrator 27.2.0, SVG Export Plug-In . SVG Version: 6.00 Build 0)  -->
<svg version="1.1" id="Layer_1" xmlns="http://www.w3.org/2000/svg" xmlns:xlink="http://www.w3.org/1999/xlink" x="0px" y="0px"
	 viewBox="0 0 528.5 159.4" style="enable-background:new 0 0 528.5 159.4;" xml:space="preserve">
<style type="text/css">
	.st0{fill:#BE202E;}
	.st1{fill:url(#SVGID_1_);}
	.st2{fill:url(#SVGID_00000084495740043982341700000007959049362252725903_);}
	.st3{fill:url(#SVGID_00000115506487121708131080000000288179733214626707_);}
	.st4{fill:url(#SVGID_00000025423303989717450680000003370754737839075768_);}
	.st5{fill:#2075BB;}
	.st6{fill:#FFFFFF;stroke:#BE1622;stroke-width:1.15;stroke-miterlimit:10;}
</style>
<g>
	<path class="st0" d="M133.2,118.1c-12.6,19.2-34.3,32-58.9,32s-46.3-12.8-58.9-32c-0.5-0.7-1.5-1.3-2.4-1.3H5.3
		c-0.8,0-1.2,0.6-0.8,1.3c13.6,24.6,39.8,41.3,69.8,41.3s56.2-16.7,69.8-41.3c0.4-0.7,0-1.3-0.8-1.3h-7.7
		C134.7,116.8,133.7,117.4,133.2,118.1L133.2,118.1z"/>
	<g>
		
			<linearGradient id="SVGID_1_" gradientUnits="userSpaceOnUse" x1="63.9449" y1="165.0237" x2="105.0649" y2="131.3237" gradientTransform="matrix(1 0 0 -1 0 196)">
			<stop  offset="0" style="stop-color:#5BC5F0"/>
			<stop  offset="1" style="stop-color:#0074AF"/>
		</linearGradient>
		<path class="st1" d="M113.1,48.7l-18.3-6.9L76.4,35c-0.6-0.2-1.3-0.3-2.1-0.3v27.5c0.8,0,1.6,0.1,2.2,0.3l36.6,11
			c1.2,0.4,2.2-0.4,2.2-1.6v-20C115.2,50.5,114.2,49.2,113.1,48.7L113.1,48.7z"/>
		
			<linearGradient id="SVGID_00000131348967246197902700000005995591464602736542_" gradientUnits="userSpaceOnUse" x1="65.8096" y1="131.3548" x2="90.4096" y2="81.8148" gradientTransform="matrix(1 0 0 -1 0 196)">
			<stop  offset="0" style="stop-color:#5BC5F0"/>
			<stop  offset="1" style="stop-color:#0074AF"/>
		</linearGradient>
		<path style="fill:url(#SVGID_00000131348967246197902700000005995591464602736542_);" d="M91.9,74.8l-7.7-2.2l-7.7-2.2
			c-0.6-0.2-1.4-0.2-2.2-0.2v56.1c0.8,0,1.6-0.1,2.1-0.3l15.5-4.8c1.2-0.4,2.1-1.7,2.1-2.9V77.6C94.1,76.4,93.1,75.1,91.9,74.8
			L91.9,74.8z"/>
		
			<linearGradient id="SVGID_00000029021337303362732120000016113823211748669610_" gradientUnits="userSpaceOnUse" x1="31.0881" y1="150.4848" x2="92.3381" y2="128.1148" gradientTransform="matrix(1 0 0 -1 0 196)">
			<stop  offset="0" style="stop-color:#E83C3C"/>
			<stop  offset="1" style="stop-color:#821810"/>
		</linearGradient>
		<path style="fill:url(#SVGID_00000029021337303362732120000016113823211748669610_);" d="M35.6,73.4l36.6-11
			c0.6-0.2,1.4-0.3,2.2-0.3V34.6c-0.8,0-1.5,0.1-2.1,0.3l-18.3,6.9l-18.3,6.9c-1.2,0.4-2.1,1.8-2.1,3v20
			C33.4,73.1,34.4,73.8,35.6,73.4L35.6,73.4z"/>
		
			<linearGradient id="SVGID_00000118367849728168231780000004320529790345850768_" gradientUnits="userSpaceOnUse" x1="54.6895" y1="123.5098" x2="81.3195" y2="63.8598" gradientTransform="matrix(1 0 0 -1 0 196)">
			<stop  offset="0" style="stop-color:#E83C3C"/>
			<stop  offset="1" style="stop-color:#821810"/>
		</linearGradient>
		<path style="fill:url(#SVGID_00000118367849728168231780000004320529790345850768_);" d="M74.3,126.4V70.3c-0.8,0-1.6,0.1-2.2,0.2
			l-7.7,2.2l-7.7,2.2c-1.2,0.3-2.2,1.6-2.2,2.8v40.1c0,1.2,1,2.6,2.1,3l7.8,2.7l7.8,2.7C72.8,126.3,73.5,126.4,74.3,126.4
			L74.3,126.4z"/>
	</g>
	<path class="st5" d="M10.2,50.7C21.3,26.3,45.9,9.4,74.3,9.4s53,17,64.1,41.3c0.4,0.8,1.3,1.4,2.1,1.4h7c0.8,0,1.3-0.6,1-1.4
		C136.9,21,108,0,74.3,0S11.7,21,0.1,50.7c-0.3,0.8,0.1,1.4,1,1.4h7C9,52.1,9.9,51.5,10.2,50.7L10.2,50.7z"/>
</g>
<g>
	<path class="st0" d="M182,42h-14.6V29h45.9v13h-14.6v36.7H182L182,42L182,42z"/>
	<path class="st0" d="M237.9,66.2h-4.5v12.5h-16.8V29h23.9c13.8,0,22.6,7.2,22.6,18.7c0,7.2-3.4,12.6-9.4,15.6l10.4,15.3h-17.9
		L237.9,66.2L237.9,66.2z M239.5,41.9h-6.1v11.6h6.1c4.6,0,6.8-2.2,6.8-5.8S244.1,41.9,239.5,41.9z"/>
	<path class="st0" d="M268,56.4V29h16.8v26.8c0,7.6,2.9,10.4,7.6,10.4s7.6-2.8,7.6-10.4V29h16.5v27.3c0,14.9-9,23.5-24.2,23.5
		S268,71.3,268,56.4L268,56.4z"/>
	<path class="st0" d="M319.9,74.7l5.4-12.2c4.7,2.8,10.9,4.5,16.4,4.5c4.8,0,6.5-1,6.5-2.7c0-6.2-27.5-1.2-27.5-19.7
		c0-9.2,7.7-16.8,23.1-16.8c6.7,0,13.6,1.4,18.7,4.3l-5,12.1c-4.9-2.5-9.5-3.7-13.8-3.7c-4.9,0-6.5,1.4-6.5,3.1
		c0,6,27.5,1,27.5,19.3c0,9.1-7.7,16.8-23.1,16.8C333.3,79.8,324.9,77.8,319.9,74.7L319.9,74.7z"/>
	<path class="st0" d="M378.7,42h-14.5V29H410v13h-14.5v36.7h-16.8L378.7,42L378.7,42z"/>
	<path class="st0" d="M454.6,66.1v12.6h-41.3V29h40.4v12.6h-23.9v5.8h21v12.1h-21v6.5H454.6z"/>
	<path class="st0" d="M460,29h24.5c16.6,0,28,9.4,28,24.9s-11.4,24.8-28,24.8H460L460,29L460,29z M483.8,65.7
		c7,0,11.9-4.2,11.9-11.8s-4.8-11.8-11.9-11.8h-7v23.6L483.8,65.7L483.8,65.7z"/>
</g>
<g>
	<path class="st5" d="M203.1,102.3h-14.6v-13h45.9v13h-14.6V139h-16.8L203.1,102.3L203.1,102.3z"/>
	<path class="st5" d="M259,126.5h-4.5V139h-16.8V89.3h23.9c13.9,0,22.6,7.2,22.6,18.7c0,7.2-3.4,12.6-9.4,15.6l10.4,15.3h-17.9
		L259,126.5L259,126.5z M260.6,102.2h-6.1v11.6h6.1c4.6,0,6.8-2.2,6.8-5.8S265.2,102.2,260.6,102.2z"/>
	<path class="st5" d="M323.4,130.3h-18.9l-3.3,8.7h-17l21.7-49.7h16.5l21.7,49.7h-17.3L323.4,130.3L323.4,130.3z M318.8,118.3
		l-4.8-12.5l-4.8,12.5H318.8L318.8,118.3z"/>
	<path class="st5" d="M345.7,89.3h24.5c16.6,0,28,9.4,28,24.8s-11.4,24.8-28,24.8h-24.5V89.3z M369.5,125.9c7,0,11.9-4.2,11.9-11.8
		s-4.8-11.8-11.9-11.8h-7v23.6L369.5,125.9L369.5,125.9z"/>
	<path class="st5" d="M444.6,126.4V139h-41.3V89.3h40.4v12.6h-23.9v5.8h21v12.1h-21v6.5H444.6z"/>
	<path class="st5" d="M446.9,135l5.4-12.2c4.7,2.8,10.9,4.5,16.4,4.5c4.8,0,6.5-1,6.5-2.7c0-6.2-27.5-1.2-27.5-19.7
		c0-9.2,7.7-16.8,23.1-16.8c6.7,0,13.6,1.4,18.7,4.3l-5,12.1c-4.9-2.5-9.5-3.7-13.8-3.7c-4.9,0-6.5,1.4-6.5,3.1
		c0,6,27.5,1,27.5,19.3c0,9.1-7.7,16.8-23.1,16.8C460.2,140.1,451.8,138.1,446.9,135L446.9,135z"/>
</g>
<g>
	<rect x="472" y="37.8" class="st0" width="26" height="32.4"/>
	<path class="st6" d="M525.7,33.9c-4.6,2.1-9.3,5.1-13.8,8.4c-1.9,1.4-3.7,2.9-5.5,4.4C496,55.6,488.1,64.9,488,65.1
		c-0.7,0.8-1.7,1.3-2.8,1.3c-0.1,0-0.2,0-0.4,0c-1.2-0.1-2.3-0.8-2.9-1.9c-3.8-6.8-9.2-12.8-9.3-12.9c-1.4-1.5-1.3-4,0.2-5.4
		c1.5-1.4,3.9-1.4,5.3,0.2c0.2,0.2,4,4.4,7.6,9.9c3.8-4.1,10.3-10.9,18-17.2c1.6-1.3,3.4-2.7,5.1-4c4.5-3.3,9.2-6.2,13.9-8.3
		c1.9-0.8,4.1,0,4.9,2S527.6,33,525.7,33.9L525.7,33.9z"/>
</g>
<g>
	<path class="st5" d="M503.1,92v-7.6h3.2c0.8,0,1.4,0.1,1.8,0.2s0.7,0.4,0.9,0.7c0.2,0.3,0.3,0.8,0.3,1.2c0,0.4-0.1,0.8-0.3,1.1
		c0,0.1-0.1,0.2-0.2,0.3c-0.4,0.5-1,0.6-1.3,0.7c0.1,0.2,0.4,0.4,0.6,0.7c0.2,0.3,0.5,0.6,0.9,1.2c0.2,0.3,0.5,0.8,0.9,1.5h-1.8
		l-1.1-1.7c-0.4-0.6-0.7-1-0.8-1.1c-0.1-0.2-0.3-0.3-0.5-0.3s-0.4-0.1-0.8-0.1h-0.3V92L503.1,92L503.1,92z M504.6,87.6h1.1
		c0.7,0,1.2,0,1.4-0.1s0.3-0.2,0.4-0.3s0.2-0.3,0.2-0.6c0-0.3-0.1-0.5-0.2-0.6c-0.1-0.2-0.3-0.3-0.6-0.3c-0.1,0-0.5,0-1.1,0h-1.2
		L504.6,87.6L504.6,87.6z"/>
	<path class="st5" d="M506,95c-0.9,0-1.8-0.2-2.7-0.5c-0.4-0.2-0.8-0.4-1.2-0.6c-0.4-0.2-0.7-0.5-1-0.8c-0.3-0.3-0.6-0.7-0.8-1
		c-0.2-0.4-0.5-0.8-0.6-1.2c-0.4-0.8-0.5-1.7-0.5-2.7s0.2-1.8,0.5-2.7c0.2-0.4,0.4-0.8,0.6-1.2c0.2-0.4,0.5-0.7,0.8-1
		c0.3-0.3,0.6-0.6,1-0.8c0.4-0.2,0.8-0.5,1.2-0.6c0.8-0.4,1.7-0.5,2.7-0.5s1.8,0.2,2.7,0.5c0.4,0.2,0.8,0.4,1.2,0.6
		c0.4,0.2,0.7,0.5,1,0.8c0.3,0.3,0.6,0.7,0.8,1c0.2,0.4,0.5,0.8,0.6,1.2c0.4,0.8,0.5,1.7,0.5,2.7s-0.2,1.8-0.5,2.7
		c-0.2,0.4-0.4,0.8-0.6,1.2c-0.2,0.4-0.5,0.7-0.8,1c-0.3,0.3-0.6,0.6-1,0.8c-0.4,0.2-0.8,0.5-1.2,0.6C507.8,94.8,506.9,95,506,95z
		 M506,81.9c-3.4,0-6.2,2.8-6.2,6.2s2.8,6.2,6.2,6.2s6.2-2.8,6.2-6.2S509.4,81.9,506,81.9L506,81.9z"/>
</g>
</svg>
