<?xml version="1.0" encoding="UTF-8"?><svg id="Layer_1" xmlns="http://www.w3.org/2000/svg" xmlns:xlink="http://www.w3.org/1999/xlink" viewBox="0 0 528.55 193.65"><defs><style>.cls-1{fill:#fff;stroke:#be1622;stroke-miterlimit:10;stroke-width:1.15px;}.cls-2{fill:url(#linear-gradient);}.cls-3{fill:#be202e;}.cls-4{fill:#2075bb;}.cls-5{fill:#1d1d1b;}.cls-6{fill:url(#linear-gradient-3);}.cls-7{fill:url(#linear-gradient-4);}.cls-8{fill:url(#linear-gradient-2);}</style><linearGradient id="linear-gradient" x1="63.95" y1="30.97" x2="105.07" y2="64.67" gradientUnits="userSpaceOnUse"><stop offset="0" stop-color="#5bc5f0"/><stop offset="1" stop-color="#0074af"/></linearGradient><linearGradient id="linear-gradient-2" x1="65.8" y1="64.65" x2="90.4" y2="114.19" xlink:href="#linear-gradient"/><linearGradient id="linear-gradient-3" x1="31.09" y1="45.51" x2="92.34" y2="67.88" gradientUnits="userSpaceOnUse"><stop offset="0" stop-color="#e83c3c"/><stop offset="1" stop-color="#821810"/></linearGradient><linearGradient id="linear-gradient-4" x1="54.69" y1="72.49" x2="81.32" y2="132.14" xlink:href="#linear-gradient-3"/></defs><g><path class="cls-3" d="M133.23,118.06c-12.57,19.24-34.28,31.98-58.92,31.98s-46.35-12.75-58.92-31.98c-.46-.71-1.5-1.29-2.35-1.29H5.31c-.84,0-1.21,.61-.8,1.35,13.59,24.59,39.77,41.29,69.8,41.29s56.22-16.7,69.8-41.29c.41-.74,.04-1.35-.8-1.35h-7.73c-.85,0-1.89,.58-2.35,1.29Z"/><g><path class="cls-2" d="M113.09,48.73l-18.34-6.89-18.34-6.89c-.58-.22-1.34-.33-2.1-.33v27.55c.78,0,1.56,.09,2.15,.27l36.57,10.97c1.19,.36,2.15-.36,2.15-1.6v-20.04c0-1.24-.94-2.6-2.1-3.04Z"/><path class="cls-8" d="M91.92,74.8l-7.72-2.15-7.72-2.15c-.6-.17-1.38-.25-2.16-.25v56.11c.77,0,1.55-.08,2.14-.26l15.49-4.83c1.18-.37,2.14-1.67,2.14-2.91v-40.72c0-1.24-.97-2.51-2.16-2.85Z"/><path class="cls-6" d="M35.58,73.41l36.57-10.97c.6-.18,1.37-.27,2.15-.27v-27.55c-.76,0-1.52,.11-2.1,.33l-18.34,6.89-18.34,6.89c-1.16,.44-2.1,1.8-2.1,3.04v20.04c0,1.24,.96,1.96,2.15,1.6Z"/><path class="cls-7" d="M74.31,126.37v-56.11c-.78,0-1.57,.08-2.17,.25l-7.72,2.15-7.72,2.15c-1.2,.33-2.16,1.61-2.16,2.85v40.09c0,1.24,.95,2.57,2.12,2.98l7.76,2.67,7.76,2.66c.58,.2,1.36,.31,2.13,.32Z"/></g><path class="cls-4" d="M10.25,50.68C21.33,26.34,45.87,9.37,74.31,9.37s52.99,16.97,64.06,41.31c.35,.77,1.3,1.4,2.14,1.4h7.03c.84,0,1.29-.64,.98-1.43C136.89,21.03,108.02,0,74.31,0S11.73,21.03,.1,50.65c-.31,.79,.14,1.43,.98,1.43h7.03c.84,0,1.8-.63,2.15-1.4Z"/></g><g><path class="cls-5" d="M12.64,175.85H7.35v-.97h11.65v.97h-5.29v13.73h-1.07v-13.73Z"/><path class="cls-5" d="M26.12,178.53v1.03c-.08,0-.17-.02-.25-.02-2.44,0-3.88,1.62-3.88,4.33v5.71h-1.05v-10.96h1.01v2.39c.67-1.6,2.12-2.48,4.18-2.48Z"/><path class="cls-5" d="M38.72,178.62v10.96h-1.01v-2.35c-.71,1.53-2.2,2.44-4.14,2.44-2.79,0-4.58-1.58-4.58-4.64v-6.4h1.05v6.32c0,2.48,1.32,3.78,3.61,3.78,2.48,0,4.01-1.66,4.01-4.26v-5.84h1.05Z"/><path class="cls-5" d="M41.48,188.26l.48-.84c.84,.71,2.33,1.32,3.95,1.32,2.31,0,3.23-.82,3.23-2.06,0-3.19-7.26-.84-7.26-5.14,0-1.66,1.39-3,4.16-3,1.39,0,2.9,.42,3.76,1.07l-.48,.84c-.92-.67-2.12-.99-3.3-.99-2.14,0-3.09,.88-3.09,2.06,0,3.3,7.26,.97,7.26,5.14,0,1.79-1.53,3-4.33,3-1.81,0-3.53-.61-4.39-1.41Z"/><path class="cls-5" d="M58.48,188.89c-.55,.52-1.43,.78-2.25,.78-1.93,0-2.98-1.13-2.98-2.98v-7.16h-2.02v-.9h2.02v-2.39h1.05v2.39h3.49v.9h-3.49v7.05c0,1.41,.69,2.18,2.04,2.18,.65,0,1.26-.21,1.7-.61l.44,.74Z"/><path class="cls-5" d="M70.18,184.35h-9.43c.1,2.6,2.02,4.37,4.64,4.37,1.39,0,2.67-.5,3.51-1.53l.61,.69c-.97,1.18-2.48,1.78-4.14,1.78-3.32,0-5.65-2.31-5.65-5.56s2.25-5.56,5.25-5.56,5.23,2.27,5.23,5.52c0,.08-.02,.19-.02,.29Zm-9.41-.82h8.4c-.15-2.37-1.87-4.07-4.2-4.07s-4.03,1.68-4.2,4.07Z"/><path class="cls-5" d="M83.12,174v15.58h-1.03v-2.58c-.86,1.7-2.52,2.67-4.49,2.67-3.09,0-5.42-2.29-5.42-5.56s2.33-5.56,5.42-5.56c1.95,0,3.59,.97,4.47,2.62v-7.16h1.05Zm-1.05,10.1c0-2.75-1.89-4.62-4.41-4.62s-4.41,1.87-4.41,4.62,1.89,4.62,4.41,4.62,4.41-1.87,4.41-4.62Z"/><path class="cls-5" d="M100.69,182.63v6.95h-1.01v-1.95c-.69,1.26-2.04,2.04-3.95,2.04-2.46,0-3.95-1.26-3.95-3.13,0-1.66,1.05-3.07,4.09-3.07h3.76v-.88c0-2.04-1.11-3.13-3.25-3.13-1.51,0-2.88,.57-3.78,1.39l-.52-.76c1.09-.97,2.69-1.55,4.39-1.55,2.71,0,4.22,1.39,4.22,4.09Zm-1.05,3.72v-2.06h-3.74c-2.27,0-3.07,.94-3.07,2.2,0,1.43,1.11,2.31,3.04,2.31s3.13-.88,3.76-2.46Z"/><path class="cls-5" d="M114.74,183.18v6.4h-1.05v-6.32c0-2.48-1.32-3.78-3.55-3.78-2.58,0-4.16,1.66-4.16,4.26v5.84h-1.05v-10.96h1.01v2.37c.73-1.53,2.27-2.46,4.35-2.46,2.67,0,4.45,1.57,4.45,4.64Z"/><path class="cls-5" d="M128.75,174v15.58h-1.03v-2.58c-.86,1.7-2.52,2.67-4.49,2.67-3.09,0-5.42-2.29-5.42-5.56s2.33-5.56,5.42-5.56c1.95,0,3.59,.97,4.47,2.62v-7.16h1.05Zm-1.05,10.1c0-2.75-1.89-4.62-4.41-4.62s-4.41,1.87-4.41,4.62,1.89,4.62,4.41,4.62,4.41-1.87,4.41-4.62Z"/><path class="cls-5" d="M138.41,174h1.05v15.58h-1.05v-15.58Z"/><path class="cls-5" d="M142.61,184.1c0-3.25,2.33-5.56,5.48-5.56s5.48,2.31,5.48,5.56-2.33,5.56-5.48,5.56-5.48-2.31-5.48-5.56Zm9.89,0c0-2.75-1.89-4.62-4.41-4.62s-4.41,1.87-4.41,4.62,1.89,4.62,4.41,4.62,4.41-1.87,4.41-4.62Z"/><path class="cls-5" d="M155.55,184.1c0-3.28,2.33-5.56,5.54-5.56,1.74,0,3.25,.67,4.16,2.02l-.78,.57c-.8-1.11-2.02-1.64-3.38-1.64-2.58,0-4.47,1.85-4.47,4.62s1.89,4.62,4.47,4.62c1.36,0,2.58-.53,3.38-1.64l.78,.57c-.9,1.32-2.41,2.02-4.16,2.02-3.21,0-5.54-2.31-5.54-5.56Z"/><path class="cls-5" d="M176.23,182.63v6.95h-1.01v-1.95c-.69,1.26-2.04,2.04-3.95,2.04-2.46,0-3.95-1.26-3.95-3.13,0-1.66,1.05-3.07,4.09-3.07h3.76v-.88c0-2.04-1.11-3.13-3.25-3.13-1.51,0-2.88,.57-3.78,1.39l-.52-.76c1.09-.97,2.69-1.55,4.39-1.55,2.71,0,4.22,1.39,4.22,4.09Zm-1.05,3.72v-2.06h-3.74c-2.27,0-3.07,.94-3.07,2.2,0,1.43,1.11,2.31,3.04,2.31s3.13-.88,3.76-2.46Z"/><path class="cls-5" d="M180.47,174h1.05v15.58h-1.05v-15.58Z"/><path class="cls-5" d="M196.62,188.89c-.55,.52-1.43,.78-2.25,.78-1.93,0-2.98-1.13-2.98-2.98v-7.16h-2.02v-.9h2.02v-2.39h1.05v2.39h3.49v.9h-3.49v7.05c0,1.41,.69,2.18,2.04,2.18,.65,0,1.26-.21,1.7-.61l.44,.74Z"/><path class="cls-5" d="M204.64,178.53v1.03c-.08,0-.17-.02-.25-.02-2.44,0-3.88,1.62-3.88,4.33v5.71h-1.05v-10.96h1.01v2.39c.67-1.6,2.12-2.48,4.18-2.48Z"/><path class="cls-5" d="M215.37,182.63v6.95h-1.01v-1.95c-.69,1.26-2.04,2.04-3.95,2.04-2.46,0-3.95-1.26-3.95-3.13,0-1.66,1.05-3.07,4.09-3.07h3.76v-.88c0-2.04-1.11-3.13-3.25-3.13-1.51,0-2.88,.57-3.78,1.39l-.52-.76c1.09-.97,2.69-1.55,4.39-1.55,2.71,0,4.22,1.39,4.22,4.09Zm-1.05,3.72v-2.06h-3.74c-2.27,0-3.07,.94-3.07,2.2,0,1.43,1.11,2.31,3.04,2.31s3.13-.88,3.76-2.46Z"/><path class="cls-5" d="M229.38,174v15.58h-1.03v-2.58c-.86,1.7-2.52,2.67-4.49,2.67-3.09,0-5.42-2.29-5.42-5.56s2.33-5.56,5.42-5.56c1.95,0,3.59,.97,4.47,2.62v-7.16h1.05Zm-1.05,10.1c0-2.75-1.89-4.62-4.41-4.62s-4.41,1.87-4.41,4.62,1.89,4.62,4.41,4.62,4.41-1.87,4.41-4.62Z"/><path class="cls-5" d="M242.99,184.35h-9.43c.1,2.6,2.02,4.37,4.64,4.37,1.39,0,2.67-.5,3.51-1.53l.61,.69c-.97,1.18-2.48,1.78-4.14,1.78-3.32,0-5.65-2.31-5.65-5.56s2.25-5.56,5.25-5.56,5.23,2.27,5.23,5.52c0,.08-.02,.19-.02,.29Zm-9.41-.82h8.4c-.15-2.37-1.87-4.07-4.2-4.07s-4.03,1.68-4.2,4.07Z"/><path class="cls-5" d="M244.56,188.26l.48-.84c.84,.71,2.33,1.32,3.95,1.32,2.31,0,3.23-.82,3.23-2.06,0-3.19-7.26-.84-7.26-5.14,0-1.66,1.39-3,4.16-3,1.39,0,2.9,.42,3.76,1.07l-.48,.84c-.92-.67-2.12-.99-3.3-.99-2.14,0-3.09,.88-3.09,2.06,0,3.3,7.26,.97,7.26,5.14,0,1.79-1.53,3-4.33,3-1.81,0-3.53-.61-4.39-1.41Z"/><path class="cls-5" d="M267.05,184.1c0,3.3-2.33,5.56-5.42,5.56-1.93,0-3.57-.94-4.45-2.58v6.57h-1.05v-15.03h1.01v2.58c.86-1.68,2.52-2.67,4.49-2.67,3.09,0,5.42,2.29,5.42,5.56Zm-1.05,0c0-2.75-1.91-4.62-4.43-4.62s-4.41,1.87-4.41,4.62,1.89,4.62,4.41,4.62,4.43-1.87,4.43-4.62Z"/><path class="cls-5" d="M279.49,184.35h-9.43c.11,2.6,2.02,4.37,4.64,4.37,1.39,0,2.67-.5,3.51-1.53l.61,.69c-.97,1.18-2.48,1.78-4.14,1.78-3.32,0-5.65-2.31-5.65-5.56s2.25-5.56,5.25-5.56,5.23,2.27,5.23,5.52c0,.08-.02,.19-.02,.29Zm-9.41-.82h8.4c-.15-2.37-1.87-4.07-4.2-4.07s-4.03,1.68-4.2,4.07Z"/><path class="cls-5" d="M281.48,184.1c0-3.25,2.33-5.56,5.48-5.56s5.48,2.31,5.48,5.56-2.33,5.56-5.48,5.56-5.48-2.31-5.48-5.56Zm9.89,0c0-2.75-1.89-4.62-4.41-4.62s-4.41,1.87-4.41,4.62,1.89,4.62,4.41,4.62,4.41-1.87,4.41-4.62Z"/><path class="cls-5" d="M306.53,184.1c0,3.3-2.33,5.56-5.42,5.56-1.93,0-3.57-.94-4.45-2.58v6.57h-1.05v-15.03h1.01v2.58c.86-1.68,2.52-2.67,4.49-2.67,3.09,0,5.42,2.29,5.42,5.56Zm-1.05,0c0-2.75-1.91-4.62-4.43-4.62s-4.41,1.87-4.41,4.62,1.89,4.62,4.41,4.62,4.43-1.87,4.43-4.62Z"/><path class="cls-5" d="M309.71,174h1.05v15.58h-1.05v-15.58Z"/><path class="cls-5" d="M324.36,184.35h-9.43c.11,2.6,2.02,4.37,4.64,4.37,1.38,0,2.67-.5,3.51-1.53l.61,.69c-.97,1.18-2.48,1.78-4.14,1.78-3.32,0-5.65-2.31-5.65-5.56s2.25-5.56,5.25-5.56,5.23,2.27,5.23,5.52c0,.08-.02,.19-.02,.29Zm-9.41-.82h8.4c-.15-2.37-1.87-4.07-4.2-4.07s-4.03,1.68-4.2,4.07Z"/><path class="cls-5" d="M348.53,178.62l-4.16,10.96h-.99l-3.7-9.51-3.72,9.51h-.97l-4.16-10.96h1.01l3.65,9.78,3.74-9.78h.9l3.72,9.76,3.7-9.76h.97Z"/><path class="cls-5" d="M350.55,175.11c0-.46,.38-.86,.86-.86s.86,.38,.86,.84-.38,.86-.86,.86-.86-.38-.86-.84Zm.34,3.51h1.05v10.96h-1.05v-10.96Z"/><path class="cls-5" d="M361.72,188.89c-.55,.52-1.43,.78-2.25,.78-1.93,0-2.98-1.13-2.98-2.98v-7.16h-2.02v-.9h2.02v-2.39h1.05v2.39h3.49v.9h-3.49v7.05c0,1.41,.69,2.18,2.04,2.18,.65,0,1.26-.21,1.7-.61l.44,.74Z"/><path class="cls-5" d="M374.36,183.18v6.4h-1.05v-6.32c0-2.48-1.32-3.78-3.55-3.78-2.58,0-4.16,1.66-4.16,4.26v5.84h-1.05v-15.58h1.05v6.91c.76-1.49,2.27-2.37,4.3-2.37,2.67,0,4.45,1.57,4.45,4.64Z"/><path class="cls-5" d="M378.27,175.11c0-.46,.38-.86,.86-.86s.86,.38,.86,.84-.38,.86-.86,.86-.86-.38-.86-.84Zm.34,3.51h1.05v10.96h-1.05v-10.96Z"/><path class="cls-5" d="M393.8,183.18v6.4h-1.05v-6.32c0-2.48-1.32-3.78-3.55-3.78-2.58,0-4.16,1.66-4.16,4.26v5.84h-1.05v-10.96h1.01v2.37c.74-1.53,2.27-2.46,4.35-2.46,2.67,0,4.45,1.57,4.45,4.64Z"/><path class="cls-5" d="M411.28,182.63v6.95h-1.01v-1.95c-.69,1.26-2.04,2.04-3.95,2.04-2.46,0-3.95-1.26-3.95-3.13,0-1.66,1.05-3.07,4.09-3.07h3.76v-.88c0-2.04-1.11-3.13-3.25-3.13-1.51,0-2.88,.57-3.78,1.39l-.52-.76c1.09-.97,2.69-1.55,4.39-1.55,2.71,0,4.22,1.39,4.22,4.09Zm-1.05,3.72v-2.06h-3.74c-2.27,0-3.06,.94-3.06,2.2,0,1.43,1.11,2.31,3.04,2.31s3.13-.88,3.76-2.46Z"/><path class="cls-5" d="M422.07,177.02v1.6h3.51v.9h-3.49v10.06h-1.05v-10.06h-2.02v-.9h2.02v-1.68c0-1.83,1.09-3.02,3.04-3.02,.8,0,1.64,.23,2.16,.71l-.42,.8c-.44-.4-1.05-.61-1.7-.61-1.37,0-2.06,.76-2.06,2.21Z"/><path class="cls-5" d="M436.71,184.35h-9.43c.11,2.6,2.02,4.37,4.64,4.37,1.38,0,2.67-.5,3.51-1.53l.61,.69c-.97,1.18-2.48,1.78-4.14,1.78-3.32,0-5.65-2.31-5.65-5.56s2.25-5.56,5.25-5.56,5.23,2.27,5.23,5.52c0,.08-.02,.19-.02,.29Zm-9.41-.82h8.4c-.15-2.37-1.87-4.07-4.2-4.07s-4.03,1.68-4.2,4.07Z"/><path class="cls-5" d="M455.35,178.62l-4.16,10.96h-.99l-3.7-9.51-3.72,9.51h-.97l-4.16-10.96h1.01l3.65,9.78,3.74-9.78h.9l3.72,9.76,3.7-9.76h.97Z"/><path class="cls-5" d="M461.82,184.1c0-3.28,2.33-5.56,5.54-5.56,1.74,0,3.25,.67,4.16,2.02l-.78,.57c-.8-1.11-2.02-1.64-3.38-1.64-2.58,0-4.47,1.85-4.47,4.62s1.89,4.62,4.47,4.62c1.36,0,2.58-.53,3.38-1.64l.78,.57c-.9,1.32-2.41,2.02-4.16,2.02-3.21,0-5.54-2.31-5.54-5.56Z"/><path class="cls-5" d="M474.4,174h1.05v15.58h-1.05v-15.58Z"/><path class="cls-5" d="M479.46,175.11c0-.46,.38-.86,.86-.86s.86,.38,.86,.84-.38,.86-.86,.86-.86-.38-.86-.84Zm.34,3.51h1.05v10.96h-1.05v-10.96Z"/><path class="cls-5" d="M484,184.1c0-3.28,2.33-5.56,5.54-5.56,1.74,0,3.25,.67,4.16,2.02l-.78,.57c-.8-1.11-2.02-1.64-3.38-1.64-2.58,0-4.47,1.85-4.47,4.62s1.89,4.62,4.47,4.62c1.36,0,2.58-.53,3.38-1.64l.78,.57c-.9,1.32-2.41,2.02-4.16,2.02-3.21,0-5.54-2.31-5.54-5.56Z"/><path class="cls-5" d="M500.48,183.72l-2.86,2.6v3.25h-1.05v-15.58h1.05v11.02l7.01-6.4h1.34l-4.72,4.43,5.19,6.53h-1.3l-4.66-5.86Z"/><path class="cls-5" d="M506.89,188.26l.48-.84c.84,.71,2.33,1.32,3.95,1.32,2.31,0,3.23-.82,3.23-2.06,0-3.19-7.26-.84-7.26-5.14,0-1.66,1.39-3,4.16-3,1.39,0,2.9,.42,3.76,1.07l-.48,.84c-.92-.67-2.12-.99-3.3-.99-2.14,0-3.09,.88-3.09,2.06,0,3.3,7.26,.97,7.26,5.14,0,1.79-1.53,3-4.33,3-1.81,0-3.53-.61-4.39-1.41Z"/><path class="cls-5" d="M517.45,188.76c0-.5,.4-.88,.88-.88s.88,.38,.88,.88-.4,.9-.88,.9-.88-.4-.88-.9Z"/></g><g><path class="cls-3" d="M182.03,42.01h-14.55v-12.99h45.87v12.99h-14.55v36.71h-16.76V42.01Z"/><path class="cls-3" d="M237.91,66.22h-4.54v12.5h-16.76V29.02h23.93c13.84,0,22.65,7.24,22.65,18.74,0,7.17-3.41,12.57-9.37,15.62l10.44,15.34h-17.89l-8.45-12.5Zm1.56-24.28h-6.11v11.64h6.11c4.61,0,6.82-2.2,6.82-5.82s-2.2-5.82-6.82-5.82Z"/><path class="cls-3" d="M268.01,56.36V29.02h16.76v26.84c0,7.6,2.91,10.44,7.6,10.44s7.6-2.84,7.6-10.44V29.02h16.47v27.33c0,14.91-8.95,23.5-24.21,23.5s-24.21-8.59-24.21-23.5Z"/><path class="cls-3" d="M319.91,74.74l5.4-12.21c4.69,2.77,10.93,4.54,16.4,4.54,4.76,0,6.46-.99,6.46-2.7,0-6.25-27.48-1.21-27.48-19.74,0-9.23,7.74-16.76,23.15-16.76,6.67,0,13.56,1.42,18.74,4.33l-5.04,12.14c-4.9-2.48-9.51-3.69-13.84-3.69-4.9,0-6.46,1.42-6.46,3.12,0,5.96,27.48,.99,27.48,19.31,0,9.09-7.74,16.76-23.15,16.76-8.31,0-16.68-2.06-21.66-5.11Z"/><path class="cls-3" d="M378.7,42.01h-14.55v-12.99h45.87v12.99h-14.55v36.71h-16.76V42.01Z"/><path class="cls-3" d="M454.6,66.08v12.64h-41.32V29.02h40.4v12.64h-23.93v5.82h21.02v12.07h-21.02v6.53h24.85Z"/><path class="cls-3" d="M460,29.02h24.5c16.61,0,28.04,9.44,28.04,24.85s-11.43,24.85-28.04,24.85h-24.5V29.02Zm23.79,36.64c7.03,0,11.86-4.19,11.86-11.79s-4.83-11.79-11.86-11.79h-7.03v23.57h7.03Z"/></g><g><path class="cls-4" d="M203.13,102.29h-14.55v-12.99h45.87v12.99h-14.55v36.71h-16.76v-36.71Z"/><path class="cls-4" d="M259.01,126.5h-4.54v12.5h-16.76v-49.7h23.93c13.85,0,22.65,7.24,22.65,18.74,0,7.17-3.41,12.57-9.37,15.62l10.44,15.34h-17.89l-8.45-12.5Zm1.56-24.28h-6.11v11.64h6.11c4.61,0,6.82-2.2,6.82-5.82s-2.2-5.82-6.82-5.82Z"/><path class="cls-4" d="M323.4,130.33h-18.89l-3.34,8.66h-17.04l21.73-49.7h16.47l21.73,49.7h-17.32l-3.34-8.66Zm-4.62-12.07l-4.83-12.5-4.83,12.5h9.66Z"/><path class="cls-4" d="M345.7,89.3h24.5c16.61,0,28.04,9.44,28.04,24.85s-11.43,24.85-28.04,24.85h-24.5v-49.7Zm23.79,36.64c7.03,0,11.86-4.19,11.86-11.79s-4.83-11.79-11.86-11.79h-7.03v23.57h7.03Z"/><path class="cls-4" d="M444.6,126.36v12.64h-41.32v-49.7h40.4v12.64h-23.93v5.82h21.02v12.07h-21.02v6.53h24.85Z"/><path class="cls-4" d="M446.87,135.02l5.4-12.21c4.69,2.77,10.93,4.54,16.4,4.54,4.76,0,6.46-.99,6.46-2.7,0-6.25-27.48-1.21-27.48-19.74,0-9.23,7.74-16.76,23.15-16.76,6.67,0,13.56,1.42,18.74,4.33l-5.04,12.14c-4.9-2.48-9.51-3.69-13.84-3.69-4.9,0-6.46,1.42-6.46,3.12,0,5.96,27.48,.99,27.48,19.31,0,9.09-7.74,16.76-23.15,16.76-8.31,0-16.69-2.06-21.66-5.11Z"/></g><g><rect class="cls-3" x="471.95" y="37.85" width="25.96" height="32.42"/><path class="cls-1" d="M525.73,33.86c-4.62,2.06-9.32,5.07-13.76,8.42-1.89,1.43-3.74,2.92-5.51,4.43-10.43,8.86-18.33,18.21-18.45,18.35-.71,.85-1.74,1.32-2.82,1.32-.12,0-.24,0-.35-.02-1.2-.12-2.27-.83-2.87-1.9-3.8-6.8-9.24-12.8-9.29-12.86-1.4-1.54-1.33-3.95,.17-5.4,1.5-1.44,3.85-1.36,5.26,.18,.2,.22,3.97,4.37,7.63,9.89,3.75-4.1,10.3-10.87,18.05-17.18,1.65-1.35,3.36-2.67,5.1-3.95,4.46-3.27,9.18-6.2,13.89-8.3,1.88-.84,4.07,.05,4.89,1.98,.82,1.93-.05,4.18-1.93,5.02Z"/></g><g><path class="cls-4" d="M503.1,91.98v-7.63h3.24c.82,0,1.41,.07,1.78,.21,.37,.14,.67,.38,.89,.73,.22,.35,.33,.75,.33,1.2,0,.43-.09,.8-.28,1.12-.03,.05-.1,.17-.22,.3-.42,.46-.98,.62-1.29,.68,.15,.15,.36,.38,.6,.67,.24,.3,.47,.57,.88,1.24,.2,.32,.51,.83,.93,1.49h-1.84l-1.11-1.66c-.4-.59-.67-.97-.81-1.12-.15-.15-.3-.26-.46-.32-.16-.06-.42-.09-.78-.09h-.31v3.19h-1.54Zm1.54-4.4h1.14c.74,0,1.2-.03,1.38-.09,.18-.06,.33-.17,.43-.32,.1-.15,.16-.34,.16-.57,0-.26-.07-.46-.21-.62-.14-.16-.33-.26-.58-.3-.12-.02-.5-.03-1.12-.03h-1.2v1.94Z"/><path class="cls-4" d="M505.96,94.98c-.92,0-1.81-.18-2.66-.54-.4-.17-.79-.38-1.16-.63-.36-.24-.7-.52-1.01-.83-.31-.31-.59-.65-.83-1.01-.25-.36-.46-.75-.63-1.16-.36-.84-.54-1.73-.54-2.66s.18-1.81,.54-2.66c.17-.4,.38-.79,.63-1.16,.24-.36,.52-.7,.83-1.01,.31-.31,.65-.59,1.01-.83,.36-.25,.75-.46,1.16-.63,.84-.36,1.73-.54,2.66-.54s1.81,.18,2.66,.54c.4,.17,.79,.38,1.16,.63,.36,.24,.7,.52,1.01,.83,.31,.31,.59,.65,.83,1.01,.25,.36,.46,.75,.63,1.16,.36,.84,.54,1.73,.54,2.66s-.18,1.81-.54,2.66c-.17,.4-.38,.79-.63,1.16-.24,.36-.52,.7-.83,1.01-.31,.31-.65,.59-1.01,.83-.36,.25-.75,.46-1.16,.63-.84,.36-1.73,.54-2.66,.54Zm0-13.07c-3.44,0-6.24,2.8-6.24,6.24s2.8,6.24,6.24,6.24,6.24-2.8,6.24-6.24-2.8-6.24-6.24-6.24Z"/></g></svg>